<svg width="52" height="52" viewBox="0 0 52 52" fill="none" xmlns="http://www.w3.org/2000/svg">
<path d="M29.3311 1.625C29.0061 3.16875 27.6248 4.3875 25.9998 4.3875C24.3748 4.3875 22.9936 3.16875 22.6686 1.625C20.1498 3.00625 18.3623 6.175 18.3623 11.6188C18.3623 19.175 25.9998 28.275 25.9998 28.275C25.9998 28.275 33.6373 19.175 33.6373 11.6188C33.6373 6.175 31.8498 3.00625 29.3311 1.625Z" fill="#EDAFD6"/>
<path d="M50.375 19.7437C48.8313 20.0687 47.2875 19.3375 46.5562 17.7937C45.825 16.25 46.2313 14.4625 47.45 13.4062C45.175 11.6187 41.6813 11.375 36.9688 13.7312C30.4688 17.1437 26 28.275 26 28.275C26 28.275 37.1313 31.525 43.6313 28.1937C48.3438 25.8375 50.2937 22.75 50.375 19.7437Z" fill="#EDAFD6"/>
<path d="M1.625 19.7437C3.16875 20.0687 4.7125 19.3375 5.44375 17.7937C6.175 16.25 5.76875 14.4625 4.55 13.4062C6.825 11.6187 10.3187 11.375 15.0312 13.7312C21.5312 17.0625 26 28.1937 26 28.1937C26 28.1937 14.8688 31.4437 8.36875 28.1125C3.65625 25.8375 1.70625 22.75 1.625 19.7437Z" fill="#EDAFD6"/>
<path d="M37.7811 50.2938C37.2123 48.75 37.6998 47.0438 38.9998 46.0688C40.2998 45.0938 42.0873 45.2563 43.2248 46.3125C44.5248 43.6313 44.2811 39.975 41.3561 35.5063C37.2123 29.3313 25.9998 26.4062 25.9998 26.4062C25.9998 26.4062 24.6186 38.4313 28.7623 44.6875C31.6873 49.1562 34.9373 50.7 37.7811 50.2938Z" fill="#EDAFD6"/>
<path d="M14.2186 50.2938C14.7873 48.75 14.2998 47.0438 12.9998 46.0688C11.6998 45.0938 9.9123 45.2563 8.7748 46.3125C7.4748 43.6313 7.71855 39.975 10.6436 35.5063C14.7873 29.3313 25.9998 26.4062 25.9998 26.4062C25.9998 26.4062 27.3811 38.4313 23.2373 44.6875C20.3123 49.1562 17.0623 50.7 14.2186 50.2938Z" fill="#EDAFD6"/>
<path d="M28.9249 4.63123C28.5999 6.01248 27.3812 7.06873 25.9999 7.06873C24.6187 7.06873 23.3999 6.01248 23.0749 4.63123C20.8812 5.84998 19.3374 8.61248 19.3374 13.4062C19.3374 20.0687 26.0812 28.0312 26.0812 28.0312C26.0812 28.0312 32.8249 20.0687 32.8249 13.4062C32.7437 8.61248 31.1999 5.84998 28.9249 4.63123Z" fill="#F98BBD"/>
<path d="M47.3687 20.5562C46.0687 20.8812 44.6063 20.2313 44.0375 18.85C43.3875 17.4688 43.7938 15.925 44.85 15.0313C42.8188 13.4875 39.7313 13.2437 35.6688 15.275C29.9 18.2 26 27.95 26 27.95C26 27.95 35.75 30.7937 41.5187 27.8687C45.5812 25.8375 47.2875 23.1562 47.3687 20.5562Z" fill="#F98BBD"/>
<path d="M4.63135 20.5562C5.93135 20.8812 7.39385 20.2313 7.9626 18.85C8.6126 17.4688 8.20635 15.925 7.1501 15.0313C9.18135 13.4875 12.2688 13.2437 16.3313 15.275C22.0188 18.2 26.0001 27.95 26.0001 27.95C26.0001 27.95 16.2501 30.7937 10.4813 27.8687C6.41885 25.8375 4.7126 23.1562 4.63135 20.5562Z" fill="#F98BBD"/>
<path d="M36.3189 47.3687C35.8314 46.0687 36.2377 44.4437 37.4564 43.6312C38.6752 42.8187 40.1377 42.8999 41.1939 43.8749C42.3314 41.5187 42.0877 38.35 39.5689 34.45C35.8314 28.925 26.0002 26.325 26.0002 26.325C26.0002 26.325 24.7814 36.8874 28.4377 42.3312C31.0377 46.3124 33.8002 47.6937 36.3189 47.3687Z" fill="#F98BBD"/>
<path d="M15.6813 47.3687C16.1688 46.0687 15.7626 44.4438 14.5438 43.6313C13.3251 42.8188 11.8626 42.9 10.8063 43.875C9.66885 41.5187 9.9126 38.35 12.4313 34.45C16.0876 29.0063 25.9188 26.4062 25.9188 26.4062C25.9188 26.4062 27.1376 36.9688 23.4813 42.4125C20.9626 46.3125 18.2001 47.6937 15.6813 47.3687Z" fill="#F98BBD"/>
<path d="M23.3188 33.2312L22.3438 32.7437L28.6812 18.7687L29.6562 19.2562L23.3188 33.2312Z" fill="#EEE07F"/>
<path d="M30.4687 18.9312C30.4687 19.6625 29.9812 20.3125 29.2499 20.3125C28.5187 20.3125 27.9499 19.7437 27.8687 19.0125C27.8687 18.2812 28.3562 17.6312 29.0874 17.6312C29.8187 17.6312 30.3874 18.2 30.4687 18.9312Z" fill="#EEE07F"/>
<path d="M24.1313 32.9062C24.1313 33.6374 23.6438 34.2875 22.9125 34.2875C22.1813 34.2875 21.6125 33.7187 21.5312 32.9874C21.5312 32.2562 22.0188 31.6062 22.75 31.6062C23.4812 31.6062 24.1313 32.1749 24.1313 32.9062Z" fill="#EEE07F"/>
<path d="M19.4185 29.5749L19.0122 28.5187L32.581 22.4249L32.9872 23.4812L19.4185 29.5749Z" fill="#EEE07F"/>
<path d="M34.0434 22.9937C33.9621 23.7249 33.3934 24.2937 32.6621 24.2124C31.9309 24.1312 31.4434 23.4812 31.4434 22.7499C31.5246 22.0187 32.0934 21.4499 32.8246 21.5312C33.5559 21.6124 34.1246 22.2624 34.0434 22.9937Z" fill="#EEE07F"/>
<path d="M20.5561 29.1687C20.4748 29.9 19.9061 30.4687 19.1748 30.3875C18.4436 30.3062 17.9561 29.6562 17.9561 28.925C18.0373 28.1937 18.6061 27.625 19.3373 27.7062C20.0686 27.7875 20.5561 28.4375 20.5561 29.1687Z" fill="#EEE07F"/>
<path d="M32.4188 29.8188L19.0938 23.2375L19.5813 22.1813L32.9062 28.7625L32.4188 29.8188Z" fill="#EEE07F"/>
<path d="M32.7436 30.6312C32.0123 30.6312 31.4436 30.0624 31.3623 29.3312C31.3623 28.5999 31.8498 27.95 32.5811 27.95C33.3123 27.95 33.8811 28.5187 33.9623 29.2499C34.0436 29.9812 33.4748 30.6312 32.7436 30.6312Z" fill="#EEE07F"/>
<path d="M19.4184 24.05C18.6871 24.05 18.1184 23.4813 18.0371 22.75C18.0371 22.0188 18.5246 21.3688 19.2559 21.3688C19.9871 21.3688 20.5559 21.9375 20.6371 22.6688C20.6371 23.4 20.0684 24.05 19.4184 24.05Z" fill="#EEE07F"/>
<path d="M28.4374 33.3125L22.5874 19.175L23.5624 18.6875L29.4124 32.825L28.4374 33.3125Z" fill="#EEE07F"/>
<path d="M28.8438 34.45C28.1125 34.3687 27.625 33.7187 27.625 32.9875C27.7063 32.2562 28.275 31.6875 29.0063 31.7687C29.7375 31.85 30.225 32.5 30.225 33.2312C30.1438 33.9625 29.575 34.5312 28.8438 34.45Z" fill="#EEE07F"/>
<path d="M22.9937 20.2312C22.2624 20.15 21.7749 19.5 21.7749 18.7687C21.7749 18.0375 22.4249 17.4687 23.1562 17.55C23.8874 17.6312 24.3749 18.2812 24.3749 19.0125C24.2937 19.7437 23.6437 20.3125 22.9937 20.2312Z" fill="#EEE07F"/>
<path d="M25.9998 28.8438C27.5255 28.8438 28.7623 27.5706 28.7623 26C28.7623 24.4294 27.5255 23.1562 25.9998 23.1562C24.4741 23.1562 23.2373 24.4294 23.2373 26C23.2373 27.5706 24.4741 28.8438 25.9998 28.8438Z" fill="#EEE07F"/>
</svg>
