<svg width="56" height="56" viewBox="0 0 56 56" fill="none" xmlns="http://www.w3.org/2000/svg">
<g clip-path="url(#clip0_688_15)">
<path d="M42.5702 37.7513C41.6503 37.7489 40.3538 37.7405 39.4684 37.7639C37.6343 33.8917 33.9875 31.1841 29.7946 30.5689V25.5593C33.1491 25.4982 39.8628 24.6244 45.3149 19.1722C52.7417 11.7442 51.6777 2.11083 51.6277 1.69772C51.5289 0.859578 50.8681 0.199062 50.0299 0.0993125C49.615 0.0510781 39.8282 -1.14778 32.4027 6.28009C30.505 8.17775 29.1668 10.2273 28.2193 12.2353C25.1695 5.0388 18.0202 0 9.70766 0H6.05552C5.04741 0 4.2294 0.817359 4.2294 1.82612V5.47827C4.2294 16.5542 13.2409 25.5595 24.3163 25.5595H26.1425V30.5671C21.9523 31.1788 18.2971 33.8726 16.4592 37.7392H13.3526C5.12693 37.7392 0.577148 44.9948 0.577148 50.01C0.577148 53.5067 2.65746 56 6.0483 56H49.8744C53.3435 56 55.4228 53.5065 55.4228 50.0533C55.4229 45.0203 50.8458 37.7513 42.5702 37.7513ZM34.985 8.86222C39.536 4.31189 45.3173 3.73942 48.0435 3.68353C47.9876 6.41255 47.2814 12.0395 42.7329 16.5898C39.4571 19.8648 35.5494 21.1434 32.597 21.6265L40.2164 14.007C40.9296 13.2943 40.9296 12.1376 40.2164 11.4248C39.5032 10.7115 38.3475 10.7115 37.6342 11.4248L29.9069 19.152C30.3629 16.1955 31.6278 12.2196 34.985 8.86222ZM18.3032 11.425C17.59 10.7118 16.4343 10.7118 15.721 11.425C15.0078 12.1377 15.0078 13.2944 15.721 14.0072L23.5203 21.8065C14.8284 21.3908 7.88165 14.2716 7.88165 5.47827V3.65214H9.70777C18.5015 3.65214 25.6825 10.5367 26.1021 19.224L18.3032 11.425Z" fill="black"/>
</g>
<defs>
<clipPath id="clip0_688_15">
<rect width="56" height="56" fill="white"/>
</clipPath>
</defs>
</svg>
