<svg width="52" height="52" viewBox="0 0 52 52" fill="none" xmlns="http://www.w3.org/2000/svg">
<g clip-path="url(#clip0_695_116)">
<path d="M27.4096 19.5813L26.9587 27.0888C26.9587 27.0888 28.4862 31.4113 28.0596 37.4279C27.6493 43.225 26.1096 46.1582 25.6871 47.1738C25.2646 48.1894 24.0784 49.461 25.6871 49.9688C27.2959 50.4766 30.0096 50.2247 31.1959 49.7982C32.3821 49.3757 32.9712 47.0194 33.1459 46.0688C33.5724 43.7166 33.808 39.2682 32.9427 34.8807C32.2805 31.5088 30.8749 25.7279 30.8749 25.7279L27.4096 19.5813Z" fill="#99C23B"/>
<path d="M27.1294 18.4438C27.1294 18.4438 28.8681 12.9879 32.8656 8.84816C36.6966 4.88316 40.6088 3.58316 43.745 3.19316C47.2022 2.76254 48.6119 2.80723 49.205 3.23379C49.7981 3.66035 49.5869 4.33066 49.5991 4.92379C49.6763 9.16504 49.8347 14.6616 44.846 19.691C39.52 25.0535 35.7256 26.0163 31.5697 26.4428C27.4178 26.8653 27.8891 24.9722 27.8891 24.9722L27.1294 18.4438Z" fill="#99C23B"/>
<path d="M1.2107 15.0516C1.06039 15.795 4.98477 24.5213 12.5654 27.2675C20.727 30.2291 28.4213 27.2675 28.4213 27.2675L29.0551 19.4106L27.1254 18.4438C27.1254 18.4438 23.0345 13.9303 18.4885 12.2647C13.776 10.5381 8.45008 10.4041 4.82227 12.3419C2.54727 13.5606 1.29195 14.6575 1.2107 15.0516Z" fill="#99C23B"/>
<path d="M35.2138 12.4638C31.4357 16.9406 29.5304 21.4541 29.3313 22.6322C29.1323 23.8103 29.7863 23.7616 30.156 23.2619C30.8223 22.36 33.142 18.2366 36.5951 14.3081C39.5851 10.9119 44.1351 7.23939 44.8013 6.45533C45.2157 5.96783 44.7607 5.35439 44.1351 5.63064C43.5095 5.90283 39.0773 7.88533 35.2138 12.4638Z" fill="#71912B"/>
<path d="M16.8311 16.6562C11.3061 14.755 7.2639 15.0109 6.43922 15.2872C5.61453 15.5634 5.65515 16.4653 6.63422 16.5831C7.61328 16.7009 11.6067 17.099 16.6117 18.8987C21.9539 20.8244 25.7605 23.729 26.4308 24.1231C27.097 24.5172 27.5317 23.729 26.9427 23.0222C26.4917 22.49 22.9248 18.7525 16.8311 16.6562Z" fill="#71912B"/>
<path d="M12 56.497C17.5 49.3303 32.2 39.297 47 56.497H12Z" fill="#CD6756"/>
</g>
<defs>
<clipPath id="clip0_695_116">
<rect width="52" height="52" fill="white"/>
</clipPath>
</defs>
</svg>
