<svg width="56" height="56" viewBox="0 0 56 56" fill="none" xmlns="http://www.w3.org/2000/svg">
<path d="M40.4808 17.2604C38.4474 7.12835 33.6276 0 27.9997 0C22.3727 0 17.5529 7.12835 15.5186 17.2604C20.0091 22.2956 23.4869 30.6945 25.6169 39.0781C27.4599 44.4637 27.9997 50.4604 27.9997 55.9996C27.9997 50.4604 28.5394 44.4637 30.3825 39.0781C32.5134 30.6945 35.9902 22.2956 40.4808 17.2604Z" fill="#C1A93D"/>
<path d="M28 56C28 40.8338 19.5519 12.5521 6.75882 12.5521C-2.18372 38.4634 10.5408 56 28 56Z" fill="#AF6D2D"/>
<path d="M20.2724 51.6193C20.1498 51.6193 20.0252 51.5951 19.9046 51.5459C16.448 50.1169 13.5573 47.7968 11.3144 44.6502C6.7871 38.2991 5.57064 29.2233 7.88784 19.0942C8.00662 18.5738 8.52506 18.2484 9.04447 18.369C9.56389 18.4878 9.88928 19.0052 9.7705 19.5248C7.57788 29.1085 8.6843 37.6338 12.8871 43.5292C14.9167 46.3765 17.5255 48.4726 20.6411 49.7606C21.1345 49.9644 21.3691 50.5292 21.1653 51.0216C21.011 51.3943 20.6518 51.6193 20.2724 51.6193Z" fill="#864D18"/>
<path d="M28 56C28 40.8338 36.4482 12.5521 49.2412 12.5521C58.1838 38.4634 45.4593 56 28 56Z" fill="#AF6D2D"/>
<path d="M20.169 15.449C20.0782 15.449 19.9874 15.4354 19.8958 15.4094C19.385 15.2588 19.0915 14.722 19.2421 14.2102C20.5233 9.85582 22.3743 6.40988 24.4521 4.50972C24.845 4.14857 25.4562 4.17657 25.8163 4.57054C26.1765 4.96352 26.1485 5.5747 25.7555 5.93476C23.9597 7.57614 22.2613 10.7913 21.0949 14.7557C20.9713 15.1758 20.586 15.449 20.169 15.449Z" fill="#B49377"/>
</svg>
