<svg width="52" height="52" viewBox="0 0 52 52" fill="none" xmlns="http://www.w3.org/2000/svg">
<path d="M4.48037 46.1096C6.99133 43.2589 9.83718 40.028 10.3829 39.4882L10.6118 39.2621L10.6116 39.5834C10.6116 39.7965 10.6024 40.0242 10.5934 40.2481C10.5767 40.6578 10.5615 41.0454 10.6024 41.2957C11.0926 44.2888 13.9934 47.6902 17.0687 48.8778C18.3529 49.3741 19.1909 49.2935 19.5615 48.6213C20.3076 47.2669 19.0469 43.8892 18.1902 42.5339C17.6316 41.6491 16.1198 39.5059 14.1521 38.7107C13.9104 38.6132 13.5817 38.568 13.118 38.568C12.8192 38.568 12.4978 38.5868 12.1871 38.6052C11.984 38.6171 11.7827 38.629 11.589 38.6356L11.2402 38.6476L11.4911 38.405C13.0338 36.9126 14.6954 35.3708 16.4299 33.8219L16.5972 33.672L16.6496 33.8904C16.7326 34.2369 16.7592 34.6412 16.7873 35.0694C16.8291 35.7095 16.8726 36.3713 17.1151 36.8193C18.7687 39.8712 20.9381 42.0676 24.1491 43.9425C24.6817 44.2529 25.7022 44.7739 26.5549 44.7739C27.4302 44.7739 27.8592 44.2307 27.867 43.1132C27.883 41.3542 26.9186 39.882 25.9857 38.4586C25.8846 38.3038 25.7837 38.1499 25.6841 37.9958C24.5327 36.0405 22.7149 34.3903 20.6938 33.4644C20.2688 33.27 19.8073 33.1796 19.2409 33.1796C18.9293 33.1796 18.6162 33.2062 18.3136 33.2316C18.0209 33.2565 17.7183 33.282 17.4272 33.282L17.0392 33.279L17.3021 33.047C18.7294 31.7886 20.1968 30.5329 21.5455 29.4175L21.6265 29.3501L22.4458 29.9607L22.4579 30.0057C22.4984 30.1577 22.5327 30.3088 22.5636 30.4452C22.6028 30.6174 22.6363 30.7661 22.6693 30.8535C23.0125 31.7719 23.6328 32.523 24.3478 33.3398C25.7433 34.9326 27.4034 36.7265 29.4492 37.8596C30.0425 38.1878 32.0939 39.2575 33.5886 39.2575C34.3342 39.2575 34.8002 38.9957 35.0132 38.4574C35.51 37.2041 34.1259 35.0231 31.1173 32.3161C29.7494 31.0868 28.0477 29.5573 26.267 28.9726C26.1219 28.9268 25.8565 28.9031 25.4785 28.9031C25.0009 28.9031 24.4039 28.9397 23.8271 28.975C23.5958 28.9891 23.3672 29.0031 23.1498 29.0142L23.1013 29.017L22.5433 28.6002L22.6774 28.4921C23.0933 28.156 23.4603 27.8637 23.7672 27.6254C24.1437 27.3319 24.9204 26.778 25.9037 26.0771C26.3901 25.7302 26.9265 25.3477 27.4902 24.9426L27.5717 24.8841L28.3345 25.4752L28.3483 25.5031C28.4609 25.7313 28.5583 25.9847 28.653 26.2296C28.7908 26.5866 28.9205 26.9238 29.0804 27.1488C29.5144 27.76 30.0646 28.3475 30.7616 28.9444C34.1201 31.9907 36.9711 33.5333 39.2384 33.5333C39.818 33.5333 40.363 33.4294 40.8587 33.2239C41.2654 33.0551 41.4747 32.8053 41.4987 32.46C41.6242 30.6289 36.6976 26.7927 35.5204 26.1034L35.309 25.9797C33.9457 25.1819 32.5362 24.3569 30.9659 24.1205C30.6307 24.0715 29.9395 24.2381 29.2718 24.3968L28.9211 24.4797L28.5425 24.1873L28.6854 24.0805C30.5771 22.7076 32.144 21.526 33.4755 20.469L33.5521 20.4081L33.679 20.4964C33.9442 20.7703 34.15 21.1709 34.3675 21.5947C34.5494 21.949 34.7375 22.3151 34.9597 22.5939C36.0396 23.9461 37.6123 25.1184 39.7676 26.1768C41.4189 26.9899 43.3547 27.8206 45.1883 27.8206C45.697 27.8206 46.1819 27.7559 46.6295 27.6275C46.971 27.5086 47.1654 27.3274 47.2152 27.0761C47.35 26.4029 46.5123 25.2517 44.7255 23.6557L44.6225 23.5632C42.5345 21.6818 40.6975 20.5974 38.8415 20.1503C37.7828 19.8942 36.853 19.7693 35.9986 19.7693L35.8651 19.7704C35.6228 19.774 35.318 19.8563 35.0264 19.9405L34.9671 19.9576L34.5104 19.6571L34.6338 19.5304C35.9471 18.447 37.2435 17.2662 38.4863 16.021L38.5718 15.9355L38.6661 16.0119C39.0514 16.3264 39.4866 16.8085 39.9075 17.2748C40.4274 17.8511 40.9653 18.4472 41.3704 18.6791C44.966 20.7372 47.0069 21.1692 48.0858 21.1692C48.9934 21.1692 49.634 20.8705 49.991 20.2816C50.1612 17.9655 45.3663 16.1212 43.5563 15.4249L43.3465 15.3442C42.0774 14.855 40.983 14.6875 39.9778 14.8236L39.603 14.8746L39.8622 14.599C40.3513 14.0779 40.8367 13.5432 41.3044 13.0104L41.3598 12.9473L41.4409 12.9698C41.6714 13.0336 41.8992 13.1029 42.1269 13.1718C42.8173 13.3816 43.5315 13.5984 44.3071 13.6518C46.2113 13.7854 48.3214 12.9515 49.7471 11.5427C49.8056 11.4847 49.8761 11.4169 49.9561 11.3399C50.6284 10.6933 52.0277 9.34725 51.9992 8.38916C51.9924 8.1499 51.8956 7.9542 51.7038 7.79059C51.1098 7.28272 50.1343 7.17614 49.4214 7.17614C49.074 7.17614 48.7128 7.20034 48.3474 7.24779C47.045 7.41687 45.588 7.90275 44.2451 8.61695C42.3517 9.62323 40.8952 11.3219 39.4861 12.9641C38.9991 13.5324 38.4949 14.1197 37.9823 14.6676L37.7716 14.8927L37.7194 14.1287L37.7423 14.0917C37.8645 13.8943 38.0022 13.6774 38.1437 13.454C38.6268 12.6936 39.2274 11.7473 39.3057 11.3975C39.338 11.1303 39.3744 10.8499 39.4109 10.5693C39.5769 9.28917 39.7488 7.96546 39.709 6.65722C39.6642 5.15643 38.5113 1.85278 37.385 1.85278C36.9557 1.85278 36.5211 2.35077 36.1273 3.29307C34.9415 6.12998 34.8815 9.90247 35.981 12.4665C36.1538 12.8696 36.3411 13.1973 36.503 13.4723L36.5192 13.4997L36.6788 15.816C36.694 16.0341 36.4044 16.326 35.8649 16.7883C35.8006 16.8435 35.7487 16.8875 35.72 16.9153C34.9466 17.6503 34.2018 18.3077 33.4431 18.9246L33.2608 19.0728L33.1207 18.1392L33.1652 18.0917C33.2727 17.9769 33.3854 17.8644 33.4948 17.7555C33.7318 17.5189 33.9555 17.2952 34.0535 17.121C34.4162 16.2708 34.6196 15.2464 34.669 14.0028C34.7514 11.8781 34.4899 9.75369 33.9131 7.8593L33.8611 7.68601C33.5551 6.66406 32.7418 3.94972 31.4371 3.94972C31.2684 3.94972 31.0929 3.99507 30.9139 4.08408C29.7326 5.2203 29.5829 6.82714 29.5312 8.37559C29.454 10.7092 29.5032 13.4231 30.4583 15.8563C30.6331 16.3032 30.9983 16.7687 31.3849 17.2616C31.5667 17.4931 31.7548 17.733 31.9219 17.9716L31.94 17.9976L32.2252 19.8972L32.1634 19.9453C30.84 20.9799 29.3028 22.1283 27.4642 23.4555L27.2584 23.6042L27.2364 22.8089L27.2736 22.769C27.4049 22.6268 27.5492 22.4827 27.6943 22.3384C28.0802 21.954 28.4797 21.5565 28.6061 21.1981C28.915 20.3273 29.0859 19.3453 29.1285 18.1959C29.2079 16.0447 28.9415 14.0119 28.3577 12.3173C27.9678 11.183 26.7573 9.15776 25.7332 9.15776C25.3517 9.15776 25.015 9.45446 24.7327 10.0404C24.0115 11.5375 23.9871 13.2584 23.963 14.9224C23.9585 15.2276 23.9544 15.5312 23.9458 15.8306C23.831 17.8074 24.4661 21.318 25.9568 22.7782C25.9798 22.8007 26.0002 22.8221 26.0203 22.8437L26.0824 22.9081L26.1241 24.4184L25.1946 25.0819C24.1968 25.7934 23.4124 26.3525 23.0162 26.6611C22.973 26.6943 22.2964 27.2321 21.2167 28.1238L21.0053 28.2985L20.9896 27.7778L21.0312 27.7365C21.2488 27.5217 21.5163 27.3154 21.7991 27.0967C22.3478 26.6734 22.9147 26.2354 23.063 25.7601C23.5484 24.2036 23.5624 22.2571 23.5051 20.3857C23.4536 18.6675 22.3574 14.4284 20.8949 14.4284C20.4196 14.4284 19.9174 14.8678 19.4018 15.7342C19.3739 15.7827 16.5398 20.8402 19.0911 25.9242C19.1762 26.0943 19.2541 26.255 19.3282 26.4071C19.4989 26.7585 19.6464 27.0616 19.8004 27.3107L19.8193 27.341L19.8774 29.2406L19.8278 29.2823C18.7946 30.1526 17.7591 31.0425 16.7503 31.927C16.3452 32.2101 15.9548 32.4671 15.5781 32.7007L15.3456 32.8446L15.3741 32.5725C15.4012 32.314 15.4245 32.055 15.4406 31.7956L15.4439 31.7435L15.4814 31.7072C15.6587 31.5354 15.8839 31.3487 16.1221 31.1503C16.9943 30.4246 18.0798 29.5215 18.0281 28.4604C17.9323 26.4959 17.779 24.4048 17.3114 22.4232C17.0778 21.4324 16.7961 20.4069 16.1583 19.7144C15.7193 19.238 15.3789 18.9007 14.9928 18.9007C14.6475 18.9007 14.2464 19.1686 13.7305 19.7445C13.2792 20.2482 12.8984 20.9364 12.7217 21.3949C12.0031 23.2564 12.0789 26.6111 12.2281 27.9444C12.3775 29.2791 12.7124 30.2553 13.2824 31.0177C13.4945 31.3012 13.719 31.4597 13.9364 31.6132C14.0394 31.6857 14.1367 31.7548 14.2244 31.8309L14.2752 31.8748L14.2703 31.9418C14.2159 32.7074 14.118 33.4244 13.9712 34.1332L13.9639 34.1698L13.9385 34.1971C13.3876 34.7938 12.6136 35.3938 11.9914 35.8754C11.6393 36.1486 11.3357 36.384 11.1456 36.5608L10.7043 36.9725L10.9296 36.4129C11.7407 34.3974 12.042 30.0057 10.6895 27.4326C10.1275 26.3625 9.33699 25.7066 8.34008 25.483C7.67123 25.3328 7.1239 25.5402 6.70346 26.1036C5.26265 28.0358 5.70939 33.2571 6.11994 34.6361C6.34583 35.3974 6.96829 35.9958 7.57001 36.5749C8.21666 37.1968 8.82786 37.7841 8.84101 38.5077C8.84774 38.8819 8.60112 39.3903 8.08767 40.062C7.83515 40.3214 5.51274 42.9929 3.4641 45.3504C1.89913 47.1506 0.412443 48.8611 0 49.3216L0.90527 50.1472C1.38737 49.6214 2.82892 47.9846 4.48037 46.1096Z" fill="#0E740C"/>
</svg>
