<svg width="56" height="56" viewBox="0 0 56 56" fill="none" xmlns="http://www.w3.org/2000/svg">
<g clip-path="url(#clip0_688_6)">
<path d="M3.24513 36.8138C4.62082 36.8138 5.73535 40.3818 5.73535 41.7563C5.73535 43.132 4.62082 44.2465 3.24513 44.2465C1.86943 44.2465 0.754903 43.132 0.754903 41.7563C0.754903 40.383 1.86943 36.8138 3.24513 36.8138Z" fill="black"/>
<path d="M7.6421 48.5674C9.01779 48.5674 10.1323 52.1329 10.1323 53.5086C10.1323 54.8843 9.01779 55.9988 7.6421 55.9988C6.26641 55.9988 5.15188 54.8843 5.15188 53.5086C5.15188 52.1329 6.26641 48.5674 7.6421 48.5674Z" fill="black"/>
<path d="M11.0775 29.6019C9.88818 31.9413 7.56838 33.5438 4.92367 33.7793C4.48718 33.8185 4.05559 33.653 3.75397 33.3379C3.45234 33.0178 3.31502 32.5789 3.37755 32.1436L5.13824 20.1106C5.202 19.6766 5.46071 19.2953 5.8408 19.0758C6.22089 18.8563 6.68069 18.8232 7.08775 18.985C9.55346 19.9672 11.3178 22.168 11.7874 24.7502L25.4769 26.7537L18.7272 18.1967C17.7451 16.9522 17.8922 15.1608 19.0631 14.0929L30.4549 3.70775C31.6258 2.64104 33.4233 2.66065 34.5709 3.75189L34.8211 3.98853C35.108 3.65993 35.4108 3.34359 35.7407 3.0432C37.8937 1.0802 40.6831 0 43.5939 0C46.8664 0 50.0076 1.38673 52.2122 3.80339C56.4692 8.47485 56.2032 15.6844 51.6813 20.0444C52.2208 20.6121 52.5297 21.3612 52.5224 22.1496C52.5138 22.9883 52.157 23.7853 51.5366 24.3493L37.673 36.9892C37.0538 37.5544 36.2262 37.8364 35.3912 37.769C34.555 37.6991 33.785 37.2859 33.2664 36.6287L29.8958 32.357L11.0775 29.6019ZM49.4927 6.28135C47.9846 4.6261 45.834 3.67832 43.5926 3.67832C41.6002 3.67832 39.6924 4.41889 38.2186 5.76148C37.9538 6.00302 37.7159 6.26296 37.4915 6.53025L49.028 17.5002C52.2232 14.5281 52.4402 9.51459 49.4927 6.28135Z" fill="black"/>
</g>
<defs>
<clipPath id="clip0_688_6">
<rect width="56" height="56" fill="white" transform="matrix(-1 0 0 1 56 0)"/>
</clipPath>
</defs>
</svg>
