<svg width="20" height="19" viewBox="0 0 20 19" fill="none" xmlns="http://www.w3.org/2000/svg">
<path d="M10.5347 13.0922C9.46179 15.2907 6.1098 18.769 1.28503 15.0945C2.1871 13.2353 5.29993 10.232 10.5347 13.0922Z" fill="#99C23B"/>
<path d="M10.1159 13.9645C8.85335 15.9654 5.56968 18.5749 1.06228 15.1215C2.50747 12.2004 6.25273 10.4885 10.8527 12.9066L5.73312 14.0542" stroke="#26162C" stroke-linecap="round"/>
<path d="M17.0948 12.0414C13.5826 12.0419 6.98376 9.90796 8.68559 1.36883C11.6525 1.36167 17.4879 3.48615 17.0948 12.0414Z" fill="#99C23B"/>
<path d="M15.7056 12.0506C12.3289 11.6818 6.89403 9.08887 8.51057 1.09842C13.1895 1.12316 17.7571 4.87697 17.5346 12.3348L12.8295 6.4524" stroke="#26162C" stroke-linecap="round"/>
</svg>
