<svg
    width="226"
    height="90"
    viewBox="0 0 226 90"
    fill="none"
    xmlns="http://www.w3.org/2000/svg"
    class="stars">
    <path
        style="--duration: 2s; --delay: 0s"
        d="M9.39031 19.4569C9.39031 19.4569 13.7227 -3.16782 17.5737 19.4569C17.5737 19.4569 39.2357 23.3079 17.5737 27.1589C17.5737 27.1589 13.7227 50.265 9.39031 27.1589C-3.60686 24.752 -2.6441 22.3451 9.39031 19.4569Z" fill="#FFFFFF"/>
    <path
        style="--duration: 1.5s; --delay: 0.9s"
        d="M94.1811 73.7605C94.1811 73.7605 97.9555 54.0493 101.311 73.7605C101.311 73.7605 120.183 77.1156 101.311 80.4707C101.311 80.4707 97.9556 100.601 94.1811 80.4707C82.8576 78.3738 83.6964 76.2768 94.1811 73.7605Z" fill="#FFFFFF"/>
    <path
        style="--duration: 1.7s; --delay: 0.4s"
        d="M152.834 6.24702C152.834 6.24702 155.525 -7.80877 157.918 6.24702C157.918 6.24702 171.375 8.63949 157.918 11.032C157.918 11.032 155.525 25.3868 152.834 11.032C144.759 9.53667 145.357 8.04137 152.834 6.24702Z" fill="#FFFFFF"/>
    <path
        style="--duration: 2.1s; --delay: 1.1s"
        d="M219.452 20.5878C219.452 20.5878 221.045 12.5153 222.461 20.5878C222.461 20.5878 230.424 21.9618 222.461 23.3359C222.461 23.3359 221.045 31.5802 219.452 23.3359C214.674 22.4771 215.028 21.6183 219.452 20.5878Z" fill="#FFFFFF"/>
    <path
        style="--duration: 1.2s; --delay: 1.3s"
        d="M180.744 57.6464C180.744 57.6464 186.623 26.942 191.85 57.6464C191.85 57.6464 221.248 62.8727 191.85 68.099C191.85 68.099 186.623 99.4568 180.744 68.099C163.105 64.8326 164.412 61.5661 180.744 57.6464Z" fill="#FFFFFF"/>
</svg>
