<svg width="301" height="50" viewBox="0 0 301 50" fill="none" xmlns="http://www.w3.org/2000/svg">
<path d="M174.02 20.0367C173.687 12.7034 177.42 0.236702 195.02 1.0367C196.52 11.0367 190.02 22.0367 174.02 24.0367L185.02 12.0367" stroke="#EDD5C9" stroke-width="1.5" stroke-linecap="round"/>
<path d="M80.0199 20.0367C79.6865 12.7034 83.4199 0.236702 101.02 1.0367C102.52 11.0367 96.0199 22.0367 80.0199 24.0367L91.02 12.0367" stroke="#EDD5C9" stroke-width="1.5" stroke-linecap="round"/>
<path d="M221.02 29.9999C220.687 37.3332 224.42 49.7999 242.02 48.9999C243.52 38.9999 237.02 27.9999 221.02 25.9999L232.02 37.9999" stroke="#EDD5C9" stroke-width="1.5" stroke-linecap="round"/>
<path d="M127.02 29.9999C126.687 37.3332 130.42 49.7999 148.02 48.9999C149.52 38.9999 143.02 27.9999 127.02 25.9999L138.02 37.9999" stroke="#EDD5C9" stroke-width="1.5" stroke-linecap="round"/>
<line x1="0.75" y1="25.25" x2="300.25" y2="25.25" stroke="#EDD5C9" stroke-width="1.5" stroke-linecap="round" stroke-dasharray="8 8"/>
</svg>
