<svg width="61" height="61" viewBox="0 0 61 61" fill="none" xmlns="http://www.w3.org/2000/svg">
<path d="M22.5 1.79153C15.3 7.79153 20.1667 16.2915 23.5 19.7915C14.8333 18.6249 7.08103e-05 22.2915 0 30.7915C-9.80607e-05 42.5627 16.5 38.6248 23.5 35.2915C21 43.9582 19.5 60.2915 28.5 60.2915C38.5319 60.2915 40 45.9582 39.5 39.2915C48.5 41.2915 61 40.7915 61 31.7915C61 28.1915 56 24.9582 53.5 23.7915C59 20.7915 61 12.2915 57.5 8.7915C50.429 1.72041 41 7.79152 36.5 12.2915C34.8333 6.29153 29.7 -4.20847 22.5 1.79153Z" fill="#EAA75E"/>
<rect x="19" y="29.2255" width="8" height="2" rx="1" transform="rotate(-10.3259 19 29.2255)" fill="#D24027"/>
<rect x="29.9487" y="16.7915" width="8" height="2" rx="1" transform="rotate(76.9686 29.9487 16.7915)" fill="#D24027"/>
<rect x="34.3726" y="35.2515" width="5.96053" height="2" rx="1" transform="rotate(103.89 34.3726 35.2515)" fill="#D24027"/>
<rect x="43.0625" y="21.4514" width="5.96053" height="2" rx="1" transform="rotate(146.093 43.0625 21.4514)" fill="#D24027"/>
<rect x="47.8799" y="32.3845" width="8.89984" height="2" rx="1" transform="rotate(-176.15 47.8799 32.3845)" fill="#D24027"/>
<circle cx="15" cy="30.7915" r="2" fill="#D24027"/>
<circle cx="28" cy="13.7915" r="2" fill="#D24027"/>
<circle cx="48" cy="16.7915" r="2" fill="#D24027"/>
<circle cx="51" cy="31.7915" r="2" fill="#D24027"/>
<circle cx="17.5" cy="27.2915" r="1.5" fill="#D24027"/>
<circle cx="18.5" cy="33.2915" r="1.5" fill="#D24027"/>
<circle cx="28.5" cy="41.2915" r="1.5" fill="#D24027"/>
<circle cx="32.5" cy="44.2915" r="1.5" fill="#D24027"/>
<circle cx="35.5" cy="40.2915" r="1.5" fill="#D24027"/>
<circle cx="43.5" cy="17.2915" r="1.5" fill="#D24027"/>
<circle cx="45.5" cy="21.2915" r="1.5" fill="#D24027"/>
</svg>
